<?xml version="1.0" standalone="no"?>
<!DOCTYPE svg PUBLIC "-//W3C//DTD SVG 20010904//EN"
 "http://www.w3.org/TR/2001/REC-SVG-20010904/DTD/svg10.dtd">
<svg version="1.0" xmlns="http://www.w3.org/2000/svg"
 width="360.000000pt" height="360.000000pt" viewBox="0 0 360.000000 360.000000"
 preserveAspectRatio="xMidYMid meet">

<g transform="translate(0.000000,360.000000) scale(0.100000,-0.100000)"
fill="#000000" stroke="none">
<path d="M1365 3119 c-5 -7 -25 -8 -55 -4 -44 6 -49 4 -69 -21 -34 -43 -26
-99 19 -135 44 -35 127 -53 180 -39 82 22 110 103 54 161 -37 39 -115 62 -129
38z"/>
<path d="M3040 2992 c0 -5 7 -13 16 -16 10 -4 14 -1 12 6 -5 15 -28 23 -28 10z"/>
<path d="M2937 2959 c-10 -6 -31 -28 -46 -50 -16 -21 -59 -66 -97 -100 -163
-144 -154 -133 -154 -189 0 -47 2 -52 28 -61 26 -9 62 -57 62 -84 0 -21 -25
-36 -37 -24 -8 8 -17 1 -32 -27 -11 -22 -20 -32 -21 -25 0 10 -12 3 -34 -18
-19 -18 -38 -31 -43 -28 -5 3 -25 -3 -43 -15 -31 -18 -35 -19 -46 -3 -20 27
11 104 77 192 20 26 32 55 33 75 1 18 5 36 10 39 12 9 0 54 -20 73 -8 9 -29
16 -45 16 -44 0 -76 -40 -90 -112 -7 -32 -21 -70 -31 -84 -18 -22 -27 -25 -76
-22 l-56 3 -7 -35 c-4 -19 -10 -51 -14 -71 -5 -33 -8 -36 -32 -31 -35 7 -56
-20 -41 -53 9 -20 18 -22 129 -28 139 -7 229 -31 311 -82 54 -34 77 -66 101
-137 7 -18 37 -25 37 -9 0 5 14 12 30 16 27 6 43 25 20 25 -5 0 -25 14 -45 31
-30 26 -35 37 -35 73 0 52 8 63 45 68 l30 3 -22 22 -21 21 49 102 c55 114 123
191 203 229 37 19 55 21 100 16 59 -8 72 0 62 41 -8 30 -35 31 -135 4 -92 -26
-136 -48 -206 -105 -60 -50 -97 -68 -119 -59 -60 23 11 128 178 262 45 36 84
70 88 76 14 20 8 64 -8 70 -19 7 -15 8 -37 -5z m24 -304 c-24 -14 -46 -23 -49
-21 -6 7 60 46 78 46 8 0 -5 -12 -29 -25z m-401 -44 c-10 -20 -30 -29 -30 -14
0 8 34 41 38 38 2 -2 -1 -13 -8 -24z m-50 -89 c0 -28 -59 -102 -81 -102 -10 0
-19 2 -19 5 0 7 42 88 53 103 15 19 47 15 47 -6z"/>
<path d="M2600 2938 c-11 -13 -23 -34 -26 -48 -3 -14 -11 -37 -19 -53 -10 -20
-12 -35 -5 -53 6 -14 13 -23 17 -21 5 2 16 7 27 11 14 5 16 9 7 20 -7 8 -8 16
-4 18 10 3 73 125 73 139 0 18 -50 9 -70 -13z"/>
<path d="M2097 2922 c-31 -32 -57 -100 -57 -149 0 -51 49 -98 92 -89 63 12
102 67 99 137 -1 26 3 50 8 54 14 8 2 37 -23 57 -33 28 -87 23 -119 -10z"/>
<path d="M3316 2808 c4 -6 3 -8 -3 -5 -15 9 -83 -12 -83 -26 0 -43 60 -49 88
-9 19 27 19 52 1 52 -6 0 -7 -5 -3 -12z m-15 -41 c-7 -7 -14 -8 -21 -1 -6 6
-2 10 12 11 16 2 18 -1 9 -10z"/>
<path d="M2910 2750 c0 -5 7 -10 15 -10 8 0 15 5 15 10 0 6 -7 10 -15 10 -8 0
-15 -4 -15 -10z"/>
<path d="M360 2635 c-16 -20 -5 -34 45 -55 52 -22 58 -32 62 -89 2 -46 55
-226 80 -274 8 -16 13 -31 11 -33 -7 -6 -109 24 -134 41 -14 9 -36 41 -50 73
-25 56 -38 72 -62 72 -9 0 -9 -5 -3 -17 5 -10 20 -40 33 -67 25 -54 64 -88
124 -110 109 -40 134 -56 159 -106 14 -27 25 -52 25 -55 0 -3 -19 6 -41 21
-34 21 -110 54 -126 54 -2 0 9 -11 24 -25 90 -80 124 -138 149 -260 24 -119
46 -152 124 -186 28 -12 70 -46 110 -89 49 -52 72 -70 92 -70 15 0 38 -4 52
-10 14 -5 26 -7 26 -4 0 3 -12 44 -26 90 -37 118 -32 192 18 265 20 30 57 75
82 101 25 26 46 49 46 52 0 2 -37 7 -82 11 -93 8 -135 29 -238 121 -70 63
-199 160 -209 157 -9 -2 -64 48 -97 88 -26 31 -50 91 -59 149 l-7 45 21 -19
c11 -11 21 -15 21 -10 1 5 10 -2 20 -15 28 -33 25 -11 -4 32 -44 64 -127 137
-156 137 -10 0 -23 -7 -30 -15z m350 -885 c0 -20 -2 -22 -10 -10 -5 8 -10 26
-10 40 0 20 2 22 10 10 5 -8 10 -26 10 -40z"/>
<path d="M1680 2639 c0 -8 -17 -10 -51 -7 -48 5 -52 4 -70 -26 -27 -45 -24
-73 14 -111 40 -40 125 -62 182 -46 73 20 97 93 49 150 -32 38 -124 68 -124
40z m23 -116 c-7 -2 -19 -2 -25 0 -7 3 -2 5 12 5 14 0 19 -2 13 -5z"/>
<path d="M260 2576 c0 -7 9 -25 21 -40 16 -20 29 -26 60 -26 21 0 39 4 39 9 0
13 -87 71 -106 71 -7 0 -14 -6 -14 -14z m81 -54 c-7 -2 -18 1 -23 6 -8 8 -4 9
13 5 13 -4 18 -8 10 -11z"/>
<path d="M1103 2483 c-22 -8 -14 -21 19 -32 36 -13 47 -7 32 17 -12 18 -31 24
-51 15z"/>
<path d="M396 2461 c-3 -5 1 -12 10 -15 20 -8 29 -1 19 13 -8 13 -22 14 -29 2z"/>
<path d="M2070 2463 c-26 -9 -40 -36 -40 -75 0 -47 15 -49 56 -5 43 46 46 53
28 71 -16 17 -20 18 -44 9z m2 -36 c-6 -7 -16 -24 -22 -38 -10 -23 -10 -22 -4
6 3 16 11 33 17 37 18 11 21 10 9 -5z"/>
<path d="M1044 2398 c-4 -7 -3 -8 4 -4 7 4 12 2 12 -3 0 -6 5 -11 10 -11 15 0
12 17 -5 23 -8 4 -17 1 -21 -5z"/>
<path d="M2990 2368 c-32 -67 -22 -95 29 -81 25 6 36 40 27 88 -9 47 -31 45
-56 -7z m40 -35 c-11 -17 -11 -17 -6 0 3 10 6 24 7 30 0 9 2 9 5 0 3 -7 0 -20
-6 -30z"/>
<path d="M1247 2363 c-14 -14 -6 -61 14 -88 18 -22 20 -29 8 -37 -26 -17 -142
0 -246 36 -127 45 -300 87 -228 56 16 -7 13 -9 -17 -9 -20 -1 -39 -5 -42 -10
-6 -9 -6 -9 131 -46 51 -13 111 -34 135 -46 73 -37 150 -59 228 -66 74 -5 111
-20 139 -53 13 -16 20 -15 95 18 l81 36 -70 35 c-49 26 -79 49 -102 81 -56 76
-80 100 -100 100 -11 0 -23 -3 -26 -7z m44 -75 c11 -21 11 -22 -4 -9 -10 7
-17 17 -17 22 0 15 9 10 21 -13z m-32 -84 c8 -8 -105 -2 -124 5 -11 5 10 6 50
3 39 -2 72 -6 74 -8z m38 10 c-3 -3 -12 -4 -19 -1 -8 3 -5 6 6 6 11 1 17 -2
13 -5z"/>
<path d="M1799 2355 c-35 -19 -60 -59 -64 -101 -2 -19 -10 -45 -19 -59 -12
-19 -14 -29 -5 -48 13 -29 58 -57 93 -57 58 0 136 107 136 187 0 77 -71 116
-141 78z"/>
<path d="M1080 2341 c-55 -20 -60 -45 -9 -49 23 -2 40 2 49 13 11 13 10 15 -6
9 -10 -4 -16 -4 -12 0 5 7 26 13 51 15 4 1 7 8 7 16 0 19 -22 18 -80 -4z"/>
<path d="M1660 2225 c-17 -20 -11 -24 23 -18 15 3 27 12 27 19 0 19 -34 18
-50 -1z"/>
<path d="M1970 2091 c-14 -5 -41 -9 -61 -10 -49 -1 -145 -41 -253 -104 -50
-30 -129 -75 -176 -100 -145 -79 -286 -206 -321 -290 -10 -23 -9 -31 3 -44 48
-47 296 -76 472 -54 89 12 322 64 334 75 2 3 -3 16 -11 30 -22 34 -6 81 37
103 17 10 34 17 38 18 3 0 10 3 14 8 4 4 14 7 21 7 8 0 21 7 30 15 8 8 19 13
24 10 5 -4 9 -1 9 4 0 6 5 11 10 11 6 0 28 11 50 25 39 25 97 35 85 15 -3 -5
-15 -10 -26 -10 -10 0 -19 -4 -19 -10 0 -5 -9 -10 -20 -10 -11 0 -20 -4 -20
-10 0 -5 -6 -10 -14 -10 -7 0 -16 -9 -19 -20 -3 -13 0 -20 9 -20 8 0 14 -7 14
-16 0 -18 -25 -46 -34 -37 -3 4 -6 2 -6 -3 0 -6 5 -15 11 -21 13 -13 97 19
178 67 29 16 54 30 57 30 14 0 134 93 148 115 22 33 20 51 -10 90 -24 32 -130
85 -170 85 -8 0 -12 5 -8 11 3 6 19 9 35 7 16 -3 29 -1 29 3 0 8 -16 12 -135
28 -106 15 -277 21 -305 12z m282 -358 c-18 -4 -21 -7 -12 -18 9 -11 7 -12 -9
-8 -15 4 -21 1 -21 -11 0 -9 -4 -16 -10 -16 -5 0 -10 11 -10 24 0 26 15 34 60
33 24 0 24 0 2 -4z"/>
<path d="M460 2025 c-10 -12 -8 -16 15 -25 14 -5 31 -10 36 -10 13 0 11 24 -3
38 -16 16 -33 15 -48 -3z"/>
<path d="M2837 1925 c-16 -14 -22 -25 -14 -25 7 0 24 11 37 25 30 32 14 32
-23 0z"/>
<path d="M3100 1926 c0 -2 7 -9 15 -16 12 -10 15 -10 15 4 0 9 -7 16 -15 16
-8 0 -15 -2 -15 -4z"/>
<path d="M2145 1699 c-10 -15 3 -25 16 -12 7 7 7 13 1 17 -6 3 -14 1 -17 -5z"/>
<path d="M2050 1691 c0 -17 18 -21 24 -6 3 9 0 15 -9 15 -8 0 -15 -4 -15 -9z"/>
<path d="M2090 1686 c0 -2 7 -7 16 -10 8 -3 12 -2 9 4 -6 10 -25 14 -25 6z"/>
<path d="M2090 1651 c0 -6 5 -13 10 -16 6 -4 8 -11 5 -16 -7 -11 5 -12 23 -1
18 12 4 42 -19 42 -10 0 -19 -4 -19 -9z"/>
<path d="M2076 1633 c4 -19 2 -22 -13 -17 -17 5 -17 5 0 -6 25 -16 33 -5 19
22 l-12 23 6 -22z"/>
<path d="M2020 1600 c20 -13 33 -13 25 0 -3 6 -14 10 -23 10 -15 0 -15 -2 -2
-10z"/>
<path d="M3227 1480 c-3 -13 0 -20 9 -20 8 0 14 9 14 20 0 11 -4 20 -9 20 -5
0 -11 -9 -14 -20z"/>
<path d="M1749 1466 c-2 -2 -33 -7 -69 -10 -75 -8 -104 -13 -143 -28 -26 -10
-28 -14 -21 -51 3 -22 15 -54 25 -71 10 -17 25 -46 33 -63 13 -29 20 -33 55
-33 76 0 120 30 141 96 7 22 16 49 21 62 13 32 11 70 -3 78 -8 5 -6 10 8 15
15 6 13 8 -12 8 -17 1 -33 -1 -35 -3z"/>
<path d="M3142 1408 c-14 -14 -16 -28 -3 -28 9 0 24 30 18 36 -2 2 -9 -2 -15
-8z"/>
<path d="M1320 1096 c0 -9 5 -16 10 -16 6 0 10 4 10 9 0 6 -4 13 -10 16 -5 3
-10 -1 -10 -9z"/>
<path d="M1320 1068 c-85 -22 -90 -26 -83 -74 4 -30 2 -44 -6 -44 -6 0 -11 5
-11 10 0 15 -36 12 -50 -5 -7 -8 -9 -15 -5 -15 4 0 2 -6 -4 -14 -27 -32 26
-69 67 -47 39 21 52 15 39 -19 -8 -20 -23 -34 -49 -45 -32 -12 -38 -19 -38
-45 0 -36 37 -64 87 -64 25 0 32 -4 28 -14 -7 -20 6 -37 16 -21 4 7 11 10 15
6 11 -10 -8 -27 -36 -32 -38 -7 -33 -11 32 -31 56 -17 97 -19 353 -19 294 1
319 3 438 43 51 17 54 25 33 77 -13 31 -19 35 -51 35 -36 0 -95 -26 -95 -42 0
-14 -20 -8 -40 12 -11 11 -33 20 -48 20 -16 0 -37 9 -47 20 -13 14 -29 20 -49
18 -29 -3 -31 -5 -28 -41 5 -57 -26 -88 -48 -47 -8 16 -7 27 7 50 17 29 16 30
-7 55 -14 15 -34 25 -52 25 -29 0 -32 -8 -28 -57 2 -26 -17 -30 -45 -9 -19 14
-19 15 -2 33 9 11 17 29 17 40 0 14 11 25 32 34 20 8 26 15 17 18 -8 2 -20 12
-27 22 -6 9 -26 21 -44 24 -18 4 -38 14 -46 22 -12 12 -33 13 -77 3 -5 -1 -17
-2 -25 -1 -12 1 -11 5 4 16 18 13 17 16 -20 51 -55 52 -82 63 -124 52z m-18
-99 l-10 -34 -1 33 c-1 19 -5 31 -11 27 -5 -3 -10 -2 -10 4 0 13 23 20 33 11
5 -4 4 -23 -1 -41z m64 -31 c-20 -29 -20 -46 0 -50 12 -2 7 -12 -22 -40 -20
-21 -41 -38 -46 -38 -16 0 -8 37 12 55 11 10 20 24 20 30 0 13 37 65 46 65 3
0 -2 -10 -10 -22z m105 -58 c-24 -21 -41 -26 -41 -12 0 15 24 32 45 32 19 -1
19 -1 -4 -20z m67 -18 c2 -7 -2 -10 -12 -6 -9 3 -16 11 -16 16 0 13 23 5 28
-10z m-152 -68 c-3 -9 -6 -18 -6 -20 0 -2 -8 -4 -17 -3 -11 0 -13 3 -5 6 6 2
12 11 12 19 0 8 5 14 11 14 6 0 8 -7 5 -16z m-56 -39 c0 -14 -4 -25 -10 -25
-5 0 -10 11 -10 25 0 14 5 25 10 25 6 0 10 -11 10 -25z m64 -20 c6 -17 -9 -29
-24 -20 -5 3 -10 15 -10 25 0 22 25 18 34 -5z m204 -8 c3 -23 0 -28 -15 -25
-11 2 -19 14 -21 31 -3 23 0 28 15 25 11 -2 19 -14 21 -31z m-74 -3 c9 -3 16
-13 16 -21 0 -13 -3 -13 -15 -3 -18 15 -20 -1 -3 -18 23 -23 3 -20 -25 4 -38
33 -21 56 27 38z m320 -16 c-5 -8 -2 -9 10 -5 16 6 16 4 -1 -24 -23 -39 -39
-53 -53 -44 -17 11 -11 35 16 60 29 27 39 32 28 13z m143 -40 c-3 -8 -6 -5 -6
6 -1 11 2 17 5 13 3 -3 4 -12 1 -19z m-498 -8 c13 -12 21 -26 17 -35 -9 -23
-32 -18 -44 10 -22 49 -13 57 27 25z m281 -20 c0 -5 -2 -10 -4 -10 -3 0 -8 5
-11 10 -3 6 -1 10 4 10 6 0 11 -4 11 -10z"/>
<path d="M2410 1008 c-90 -73 -202 -128 -327 -159 -51 -12 -91 -24 -89 -26 2
-2 34 1 71 7 136 22 279 86 363 164 36 33 71 77 60 76 -2 -1 -37 -28 -78 -62z"/>
<path d="M2290 608 c-14 -5 -83 -25 -155 -43 -126 -33 -150 -46 -43 -24 58 12
238 68 238 75 0 6 -12 4 -40 -8z"/>
<path d="M1968 523 c6 -2 18 -2 25 0 6 3 1 5 -13 5 -14 0 -19 -2 -12 -5z"/>
<path d="M1860 510 c-20 -6 -21 -8 -5 -8 11 0 29 3 40 8 25 11 -1 11 -35 0z"/>
<path d="M1928 513 c7 -3 16 -2 19 1 4 3 -2 6 -13 5 -11 0 -14 -3 -6 -6z"/>
<path d="M1768 493 c7 -3 16 -2 19 1 4 3 -2 6 -13 5 -11 0 -14 -3 -6 -6z"/>
<path d="M1693 483 c9 -2 23 -2 30 0 6 3 -1 5 -18 5 -16 0 -22 -2 -12 -5z"/>
<path d="M1528 473 c6 -2 18 -2 25 0 6 3 1 5 -13 5 -14 0 -19 -2 -12 -5z"/>
</g>
</svg>
